<svg xmlns="http://www.w3.org/2000/svg" viewBox="0 0 600 200" width="600" height="200" role="img">
  <defs>
    <linearGradient id="fundo" x1="0" y1="0" x2="1" y2="1">
      <stop offset="0" stop-color="#17212d"/>
      <stop offset="0.55" stop-color="#2f4d69"/>
      <stop offset="1" stop-color="#1f2d3c"/>
    </linearGradient>
    <radialGradient id="brilho" cx="0.78" cy="0.5" r="0.6">
      <stop offset="0" stop-color="#5e82a6" stop-opacity="0.35"/>
      <stop offset="1" stop-color="#5e82a6" stop-opacity="0"/>
    </radialGradient>
  </defs>
  <rect width="600" height="200" fill="url(#fundo)"/>
  <g fill="#eef3f8" opacity="0.55"><circle cx="165.5" cy="136.3" r="0.65"/><circle cx="61.2" cy="193.0" r="1.48"/><circle cx="547.3" cy="119.5" r="0.57"/><circle cx="486.2" cy="124.6" r="1.11"/><circle cx="34.2" cy="63.1" r="1.45"/><circle cx="599.4" cy="163.4" r="0.52"/><circle cx="438.0" cy="197.8" r="1.48"/><circle cx="484.6" cy="198.0" r="1.03"/><circle cx="75.3" cy="43.3" r="0.40"/><circle cx="285.9" cy="130.5" r="1.18"/><circle cx="428.8" cy="75.3" r="0.71"/><circle cx="532.1" cy="31.7" r="1.40"/><circle cx="128.0" cy="60.4" r="1.20"/><circle cx="319.0" cy="66.2" r="1.21"/><circle cx="161.2" cy="34.7" r="1.05"/><circle cx="16.9" cy="108.6" r="1.21"/><circle cx="140.6" cy="157.2" r="1.41"/><circle cx="556.8" cy="33.2" r="1.38"/><circle cx="168.0" cy="1.0" r="0.81"/><circle cx="276.1" cy="1.5" r="1.06"/><circle cx="440.5" cy="25.1" r="1.13"/><circle cx="554.9" cy="95.7" r="0.66"/><circle cx="171.4" cy="196.7" r="1.34"/><circle cx="369.0" cy="52.3" r="0.91"/><circle cx="227.6" cy="80.9" r="0.99"/><circle cx="362.2" cy="20.5" r="0.64"/><circle cx="107.8" cy="112.7" r="0.68"/><circle cx="153.2" cy="105.7" r="0.88"/><circle cx="36.1" cy="164.4" r="1.48"/><circle cx="130.9" cy="53.0" r="0.71"/><circle cx="167.1" cy="2.1" r="1.05"/><circle cx="144.0" cy="29.5" r="1.42"/><circle cx="584.6" cy="11.3" r="0.83"/><circle cx="378.6" cy="25.7" r="1.14"/><circle cx="266.9" cy="121.0" r="0.77"/><circle cx="516.0" cy="100.5" r="0.81"/><circle cx="484.6" cy="116.0" r="1.45"/><circle cx="135.3" cy="127.6" r="1.07"/><circle cx="423.2" cy="106.9" r="0.62"/><circle cx="530.1" cy="164.9" r="1.35"/><circle cx="123.7" cy="56.4" r="1.09"/><circle cx="362.8" cy="177.1" r="1.38"/><circle cx="167.6" cy="30.7" r="0.94"/><circle cx="391.6" cy="11.2" r="1.45"/><circle cx="68.8" cy="186.6" r="0.48"/><circle cx="242.3" cy="136.3" r="0.62"/><circle cx="433.0" cy="102.6" r="1.10"/><circle cx="265.1" cy="21.3" r="1.20"/><circle cx="184.6" cy="22.9" r="0.63"/><circle cx="238.6" cy="63.0" r="0.94"/><circle cx="513.9" cy="11.1" r="0.83"/><circle cx="491.5" cy="129.3" r="0.70"/><circle cx="523.3" cy="163.0" r="1.05"/><circle cx="551.5" cy="5.0" r="1.45"/><circle cx="167.5" cy="9.8" r="0.88"/><circle cx="25.9" cy="148.6" r="0.60"/><circle cx="245.8" cy="41.7" r="0.94"/><circle cx="363.9" cy="193.1" r="1.18"/><circle cx="2.4" cy="118.3" r="1.10"/><circle cx="433.5" cy="86.8" r="0.79"/><circle cx="490.9" cy="58.0" r="1.07"/><circle cx="236.4" cy="196.0" r="1.10"/><circle cx="504.7" cy="120.7" r="1.42"/><circle cx="4.8" cy="31.2" r="1.34"/><circle cx="494.4" cy="157.0" r="1.45"/><circle cx="517.1" cy="62.9" r="0.45"/><circle cx="581.9" cy="39.2" r="1.26"/><circle cx="478.1" cy="6.2" r="1.00"/><circle cx="117.2" cy="99.2" r="1.36"/><circle cx="196.9" cy="185.3" r="0.78"/><circle cx="372.6" cy="181.0" r="1.21"/><circle cx="238.2" cy="5.6" r="0.97"/><circle cx="294.2" cy="181.9" r="0.77"/><circle cx="19.7" cy="11.2" r="0.89"/><circle cx="161.7" cy="41.4" r="0.52"/><circle cx="504.8" cy="48.5" r="1.12"/><circle cx="80.2" cy="193.0" r="0.41"/><circle cx="427.1" cy="22.2" r="1.08"/><circle cx="21.3" cy="44.1" r="1.47"/><circle cx="384.3" cy="141.8" r="1.48"/></g>
  <rect width="600" height="200" fill="url(#brilho)"/>
  <g fill="none" stroke="#eef3f8" stroke-width="3" stroke-linecap="round" stroke-linejoin="round" opacity="0.9">
    <path d="M428 132 L470 118 L512 132"/>
    <path d="M428 132 V74 L470 60 V118"/>
    <path d="M512 132 V74 L470 60"/>
  </g>
  <rect x="0" y="196" width="600" height="4" fill="#c9a227"/>
</svg>
